<?xml version="1.0" encoding="UTF-8" standalone="no"?>
<!-- Created with Inkscape (http://www.inkscape.org/) -->

<svg
   xmlns:dc="http://purl.org/dc/elements/1.1/"
   xmlns:cc="http://creativecommons.org/ns#"
   xmlns:rdf="http://www.w3.org/1999/02/22-rdf-syntax-ns#"
   xmlns:svg="http://www.w3.org/2000/svg"
   xmlns="http://www.w3.org/2000/svg"
   xmlns:sodipodi="http://sodipodi.sourceforge.net/DTD/sodipodi-0.dtd"
   xmlns:inkscape="http://www.inkscape.org/namespaces/inkscape"
   sodipodi:docname="logo-w.svg"
   inkscape:version="0.48.2 r9819"
   version="1.1"
   id="svg2"
   height="169.90527"
   width="100%">
  <sodipodi:namedview
     id="base"
     pagecolor="#000000"
     bordercolor="#666666"
     borderopacity="1.0"
     inkscape:pageopacity="1"
     inkscape:pageshadow="2"
     inkscape:zoom="1.979899"
     inkscape:cx="219.64085"
     inkscape:cy="74.665683"
     inkscape:document-units="px"
     inkscape:current-layer="layer1"
     showgrid="false"
     inkscape:window-width="1180"
     inkscape:window-height="585"
     inkscape:window-x="729"
     inkscape:window-y="133"
     inkscape:window-maximized="0"
     fit-margin-top="0"
     fit-margin-left="0"
     fit-margin-right="0"
     fit-margin-bottom="0"
     showborder="false">
    <inkscape:grid
       type="xygrid"
       id="grid3768"
       units="px"
       empspacing="5"
       visible="true"
       enabled="true"
       snapvisiblegridlinesonly="true"
       spacingx="1px"
       spacingy="1px" />
  </sodipodi:namedview>
  <defs
     id="defs4" />
  <metadata
     id="metadata7">
    <rdf:RDF>
      <cc:Work
         rdf:about="">
        <dc:format>image/svg+xml</dc:format>
        <dc:type
           rdf:resource="http://purl.org/dc/dcmitype/StillImage" />
        <dc:title></dc:title>
      </cc:Work>
    </rdf:RDF>
  </metadata>
  <g
     inkscape:label="Calque 1"
     inkscape:groupmode="layer"
     id="layer1"
     style="display:inline"
     transform="translate(-112.26795,-449.87492)">
    <path
       style="fill:#ffffff;fill-opacity:1;stroke:none;display:inline"
       d="m 263.81067,452.45709 c -30.88132,-0.62482 -65.40138,24.96514 -73.0625,58.46875 -0.97328,-0.0633 -1.94834,-0.0937 -2.9375,-0.0937 -17.10109,0 -31.97943,9.57997 -39.59375,23.71875 -0.63229,-0.0438 -1.26292,-0.0625 -1.90625,-0.0625 -15.18783,0 -27.5,12.3698 -27.5,27.65625 0,15.28645 12.31217,27.6875 27.5,27.6875 3.38167,0 6.63262,-0.62614 9.625,-1.75 8.14827,8.23315 19.41691,13.3125 31.875,13.3125 3.01805,0 5.96089,-0.2735 8.8125,-0.84375 2.33771,3.35008 9.50581,6.00061 18.4375,5.78125 8.93169,-0.21936 15.26743,-4.22613 18.875,-9.15625 9.158,4.00969 19.25084,6.25 29.875,6.25 10.62416,0 20.717,-2.24031 29.875,-6.25 4.55154,6.22015 11.86103,10.28125 20.125,10.28125 7.5905,0 14.38379,-3.40632 18.96875,-8.78125 6.03713,3.02906 12.82729,4.75 20.03125,4.75 18.26363,0 33.97814,-10.95365 41.03125,-26.6875 11.39208,-2.34634 19.96875,-12.49662 19.96875,-24.6563 0,-13.89678 -11.19288,-25.15625 -25,-25.15625 -1.08997,0 -2.16559,0.0826 -3.21875,0.21875 -6.9143,-7.40685 -16.27081,-12.46214 -26.78125,-13.875 -0.30114,-13.63346 -11.3822,-24.59375 -25,-24.59375 -1.91415,0 -3.77169,0.21496 -5.5625,0.625 -18.30416,-23.98728 -33.55618,-36.21893 -64.4375,-36.84375 z"
       id="path3774-1"
       inkscape:connector-curvature="0"
       sodipodi:nodetypes="zcscssscsczcscscscssccscz" />
    <text
       xml:space="preserve"
       style="font-size:40px;font-style:normal;font-weight:normal;line-height:125%;letter-spacing:0px;word-spacing:0px;fill:#000000;fill-opacity:1;stroke:none;font-family:Sans"
       x="211.3035"
       y="579.89948"
       id="text2992"
       sodipodi:linespacing="125%"><tspan
         sodipodi:role="line"
         id="tspan2994"
         x="211.3035"
         y="579.89948"
         style="font-size:180px;font-style:normal;font-variant:normal;font-weight:normal;font-stretch:normal;font-family:Snickles;-inkscape-font-specification:Snickles">p<tspan
   style="font-size:180px;letter-spacing:0px"
   id="tspan2996"
   dy="21.070023">b</tspan></tspan></text>
    <path
       style="fill:none;stroke:#000000;stroke-width:1px;stroke-linecap:butt;stroke-linejoin:miter;stroke-opacity:1"
       d="m 7.0710678,113.58927 c 0,0 -1.0101526,-5.3033 0.5050762,-9.34391 1.5152288,-4.04061 1.5152288,-6.313455 2.77792,-6.818531 1.26269,-0.505076 5.050762,-4.04061 5.050762,-4.04061 l 4.545687,-5.555839 4.798224,-1.767767 6.060915,-0.505077 3.535534,-1.515228 2.525382,0.252538 3.030457,-5.555839 6.060916,-7.828682 6.818529,-2.272844 8.08122,-4.293148 4.293149,-2.020305 9.091373,-2.020305 3.030457,0.757614 2.272843,0.252539 4.545687,-15.404827 7.071068,-13.384521 7.828682,-7.828682 13.384521,-11.616754 11.11168,-3.7880722 13.63706,-5.3033008 10.35406,-3.53553392 7.07107,1.76776692 11.61675,2.0203051 12.87945,3.2829958 4.04061,3.0304571 9.09137,4.545687 6.31345,7.323606 c 0,0 3.283,1.26269 5.05077,2.777919 1.76776,1.515229 4.29314,5.808377 5.05076,6.81853 0.75761,1.010152 4.04061,4.545686 4.04061,4.545686 l 3.53553,3.030458 0.50508,3.282996 2.77792,-4.293149 7.3236,0.757615 6.81853,2.272843 6.566,4.545686 2.27284,4.545687 1.51523,6.060915 1.26269,6.060915 -1.01015,2.77792 7.57614,-1.010153 6.31345,2.020305 7.57615,3.788072 4.54568,3.535534 c 0,0 0.75762,2.525382 1.76777,3.030458 1.01015,0.505076 2.02031,3.030458 2.02031,3.030458 l 2.27284,-3.282996 4.79822,0.757614 9.59645,3.030458 4.54569,4.545686 4.04061,4.04061 2.52538,13.63706 -0.25254,6.06091 -3.53553,7.82869 -5.55584,4.79822 -8.08122,5.80838 -4.04061,0.25254 -2.02031,6.56599 -6.81853,6.06091 -11.86929,5.55584 -13.63706,6.31346 -10.35406,-0.75762 -7.82868,-0.25254 -6.31346,-3.53553 -2.77792,4.79822 -9.09137,2.27285 -9.59645,1.26269 -12.12183,-3.53554 -5.3033,-4.29314 -19.44544,4.54568 -22.72843,1.26269 -13.88959,-3.78807 -4.54569,-2.77792 -5.80838,4.54569 -9.84899,3.78807 -8.586292,0 -6.565991,-1.26269 -6.060916,-3.53553 -5.3033,-3.03046 -3.282996,2.27284 -7.828682,1.01015 -7.576144,-1.01015 c 0,0 -7.828683,-2.77792 -8.586297,-4.04061 -0.757614,-1.26269 -8.838835,-5.3033 -8.838835,-5.3033 l -1.010152,-3.53553 -14.647212,2.0203 -10.606602,-3.53553 -8.3337582,-10.6066 z"
       id="path2998"
       inkscape:connector-curvature="0"
       transform="translate(112.26795,449.87492)" />
  </g>
  <g
     inkscape:groupmode="layer"
     id="layer2"
     inkscape:label="Calque"
     style="display:none"
     transform="translate(-112.26795,-449.87492)"
     sodipodi:insensitive="true">
    <path
       style="opacity:0.2;fill:#ffffff;fill-opacity:1;stroke:none"
       d="m 275,362.36218 0,185 0,30 15,0 0,-4.03125 c 4.41265,2.55263 9.5356,4.03125 15,4.03125 16.56854,0 30,-13.43146 30,-30 0,-16.56854 -13.43146,-30 -30,-30 -5.4644,0 -10.58735,1.47862 -15,4.03125 l 0,-159.03125 -15,0 z m -65,140 0,175 15,0 0,-119.03125 c 4.41265,2.55263 9.5356,4.03125 15,4.03125 16.56855,0 30,-13.43146 30,-30 0,-16.56854 -13.43145,-30 -30,-30 -5.4644,0 -10.58735,1.47862 -15,4.03125 l 0,-4.03125 -15,0 z m 30,15 c 8.28427,0 15,6.71573 15,15 0,8.28427 -6.71573,15 -15,15 -8.28427,0 -15,-6.71573 -15,-15 0,-8.28427 6.71573,-15 15,-15 z m 65,15 c 8.28427,0 15,6.71573 15,15 0,8.28427 -6.71573,15 -15,15 -8.28427,0 -15,-6.71573 -15,-15 0,-8.28427 6.71573,-15 15,-15 z"
       id="path3793"
       inkscape:connector-curvature="0" />
    <path
       inkscape:connector-curvature="0"
       id="path3917"
       d="m 280,357.36218 0,185 0,30 15,0 0,-4.03125 c 4.41265,2.55263 9.5356,4.03125 15,4.03125 16.56854,0 30,-13.43146 30,-30 0,-16.56854 -13.43146,-30 -30,-30 -5.4644,0 -10.58735,1.47862 -15,4.03125 l 0,-159.03125 -15,0 z m -65,140 0,175 15,0 0,-119.03125 c 4.41265,2.55263 9.5356,4.03125 15,4.03125 16.56855,0 30,-13.43146 30,-30 0,-16.56854 -13.43145,-30 -30,-30 -5.4644,0 -10.58735,1.47862 -15,4.03125 l 0,-4.03125 -15,0 z m 30,15 c 8.28427,0 15,6.71573 15,15 0,8.28427 -6.71573,15 -15,15 -8.28427,0 -15,-6.71573 -15,-15 0,-8.28427 6.71573,-15 15,-15 z m 65,15 c 8.28427,0 15,6.71573 15,15 0,8.28427 -6.71573,15 -15,15 -8.28427,0 -15,-6.71573 -15,-15 0,-8.28427 6.71573,-15 15,-15 z"
       style="opacity:0.2;fill:#ffffff;fill-opacity:1;stroke:none" />
    <path
       style="opacity:0.2;fill:#ffffff;fill-opacity:1;stroke:none"
       d="m 285,352.36218 0,185 0,30 15,0 0,-4.03125 c 4.41265,2.55263 9.5356,4.03125 15,4.03125 16.56854,0 30,-13.43146 30,-30 0,-16.56854 -13.43146,-30 -30,-30 -5.4644,0 -10.58735,1.47862 -15,4.03125 l 0,-159.03125 -15,0 z m -65,140 0,175 15,0 0,-119.03125 c 4.41265,2.55263 9.5356,4.03125 15,4.03125 16.56855,0 30,-13.43146 30,-30 0,-16.56854 -13.43145,-30 -30,-30 -5.4644,0 -10.58735,1.47862 -15,4.03125 l 0,-4.03125 -15,0 z m 30,15 c 8.28427,0 15,6.71573 15,15 0,8.28427 -6.71573,15 -15,15 -8.28427,0 -15,-6.71573 -15,-15 0,-8.28427 6.71573,-15 15,-15 z m 65,15 c 8.28427,0 15,6.71573 15,15 0,8.28427 -6.71573,15 -15,15 -8.28427,0 -15,-6.71573 -15,-15 0,-8.28427 6.71573,-15 15,-15 z"
       id="path3919"
       inkscape:connector-curvature="0" />
  </g>
</svg>
