<?xml version="1.0" encoding="UTF-8" standalone="no"?>
<!-- Created with Inkscape (http://www.inkscape.org/) -->

<svg
   xmlns:dc="http://purl.org/dc/elements/1.1/"
   xmlns:cc="http://creativecommons.org/ns#"
   xmlns:rdf="http://www.w3.org/1999/02/22-rdf-syntax-ns#"
   xmlns:svg="http://www.w3.org/2000/svg"
   xmlns="http://www.w3.org/2000/svg"
   xmlns:sodipodi="http://sodipodi.sourceforge.net/DTD/sodipodi-0.dtd"
   xmlns:inkscape="http://www.inkscape.org/namespaces/inkscape"
   sodipodi:docname="logo-w.svg"
   inkscape:version="0.48.2 r9819"
   version="1.1"
   id="svg2"
   height="155.01923"
   width="294.6875">
  <sodipodi:namedview
     id="base"
     pagecolor="#000000"
     bordercolor="#666666"
     borderopacity="1.0"
     inkscape:pageopacity="1"
     inkscape:pageshadow="2"
     inkscape:zoom="1.979899"
     inkscape:cx="134.59988"
     inkscape:cy="82.714821"
     inkscape:document-units="px"
     inkscape:current-layer="layer1"
     showgrid="false"
     inkscape:window-width="1180"
     inkscape:window-height="585"
     inkscape:window-x="423"
     inkscape:window-y="148"
     inkscape:window-maximized="0"
     fit-margin-top="0"
     fit-margin-left="0"
     fit-margin-right="0"
     fit-margin-bottom="0"
     showborder="false">
    <inkscape:grid
       type="xygrid"
       id="grid3768"
       units="px"
       empspacing="5"
       visible="true"
       enabled="true"
       snapvisiblegridlinesonly="true"
       spacingx="1px"
       spacingy="1px" />
  </sodipodi:namedview>
  <defs
     id="defs4" />
  <metadata
     id="metadata7">
    <rdf:RDF>
      <cc:Work
         rdf:about="">
        <dc:format>image/svg+xml</dc:format>
        <dc:type
           rdf:resource="http://purl.org/dc/dcmitype/StillImage" />
        <dc:title />
      </cc:Work>
    </rdf:RDF>
  </metadata>
  <g
     inkscape:label="Calque 1"
     inkscape:groupmode="layer"
     id="layer1"
     style="display:inline"
     transform="translate(-118.8617,-452.44944)">
    <path
       style="fill:#ffffff;fill-opacity:1;stroke:none;display:inline"
       d="m 148.625,2.59375 c -2.78935,0.089367 -5.59568,0.3857507 -8.40625,0.875 l -2.90625,1 -0.0312,0 -13.59375,5.28125 -0.0312,0 -7.25,2.5 c -3.49606,1.993622 -6.87758,4.268322 -10.09375,6.78125 l -0.0625,0.0625 -6.34375,5.46875 C 96.105756,28.19853 92.650711,32.197912 89.625,36.5 l -5.0625,9.5625 -0.03125,0.0625 0,0.03125 -4.5,15.3125 -0.125,0.375 L 79.5,61.8125 l -2.28125,-0.25 -0.03125,0 -0.03125,-0.03125 -2.25,-0.5625 c -0.5583,0.0077 -1.103028,0.03459 -1.65625,0.0625 l -7.875,1.75 -4.28125,2 -0.03125,0 -8.0625,4.3125 -0.03125,0 L 52.9375,69.125 47.28125,71 c -0.760014,0.617295 -1.500692,1.24132 -2.21875,1.90625 L 44.96875,73 l -4.625,5.96875 -3.03125,5.5625 -0.15625,0.28125 -0.34375,-0.03125 -0.875,-0.09375 c -0.01035,-7.17e-4 -0.0209,7.04e-4 -0.03125,0 -0.559765,-0.03805 -1.120002,-0.05919 -1.6875,-0.0625 L 31,86.03125 l -0.0625,0.03125 -0.09375,0 -6,0.5 -0.0625,0 -4.09375,1.53125 c -0.19744,0.110546 -0.399339,0.228492 -0.59375,0.34375 l -4.3125,5.25 0,0.03125 L 15.75,93.75 c 0,0 -0.94812,0.88856 -2.0625,1.84375 -0.55719,0.47759 -1.17267,0.96241 -1.71875,1.375 -0.531298,0.401421 -0.992816,0.732107 -1.40625,0.90625 -0.0115,0.0048 -0.01982,0.02668 -0.03125,0.03125 -0.385497,0.636668 -0.7280723,1.299582 -1.0625,1.96875 -0.3272056,1.0991 -0.7103641,2.59223 -1.4375,4.53125 l 0,0.0625 C 6.62238,108.30099 7.5625,113.5 7.5625,113.5 l 2,11.25 6.9375,8.8125 c 0.02248,0.0188 0.03996,0.0438 0.0625,0.0625 0.897327,0.74571 1.824946,1.43452 2.8125,2.0625 l 8.6875,2.90625 14.5625,-2 0.40625,-0.0625 0.125,0.40625 0.375,1.3125 c 0.04062,-0.015 0.08448,-0.016 0.125,-0.0312 1.805802,1.82461 3.783705,3.47489 5.875,4.96875 0.03944,0.0229 0.08581,0.0396 0.125,0.0625 0.514826,0.30104 0.997095,0.59145 1.4375,0.875 0.4404,0.28355 0.84275,0.56539 1.15625,0.8125 0.07189,0.0567 0.123361,0.10338 0.1875,0.15625 3.236648,1.95226 6.738895,3.50522 10.4375,4.59375 l 5.75,0.78125 0.125,0 7.5625,-0.96875 3.21875,-2.21875 0.25,-0.1875 0.28125,0.15625 0.53125,0.3125 c 1.982123,-9.52124 4.425613,-20.54723 7.375,-33.1875 C 93.94532,88.76958 97.30078,74.2735 98.0625,70.875 97.00781,70.5235 96.64844,69.91022 97,69.03125 c 1.11329,-2.34369 2.04688,-4.32415 2.75,-5.90625 2.22656,-10.31242 4.10156,-19.72648 5.625,-28.28125 0.11718,-0.76162 1.3828,-1.69912 3.84375,-2.8125 2.16796,-0.996 4.54686,-1.71865 7.125,-2.1875 1.34765,-0.248998 2.51123,-0.413831 3.5,-0.46875 2.9663,-0.164756 4.32615,0.543048 4.0625,2.125 -0.0586,0.35167 -0.13283,0.78526 -0.25,1.3125 -0.11721,0.64463 -0.22265,1.07822 -0.28125,1.3125 5.3906,-2.92959 10.87106,-4.51553 16.4375,-4.75 8.49604,-0.29287 13.7226,1.97666 15.65625,6.78125 1.81635,4.68759 1.56635,12.58602 -0.71875,23.71875 -2.28521,10.95709 -5.27739,21.16021 -8.96875,30.59375 -4.62895,11.71878 -9.39066,19.72268 -14.3125,24 -4.86331,4.27736 -11.03128,6.80079 -18.53125,7.5625 -3.33986,0.29297 -6.25782,-0.13671 -8.71875,-1.25 C 101.28906,133.73046 98.875,145.01561 97,154.625 c -0.01699,0.0736 -0.05636,0.1412 -0.09375,0.21875 l 0.8125,0.15625 8.5,0 9.78125,-3.75 5.65625,-4.46875 0.28125,-0.21875 0.3125,0.1875 3.5625,2.1875 c 1.90626,0.70299 3.83799,1.32634 5.8125,1.875 0.39735,0.11041 0.78754,0.23978 1.1875,0.34375 3.43059,0.89182 6.95967,1.54183 10.5625,1.9375 l 19.75,-1.125 16.09375,-3.78125 c 0.73193,-0.29335 1.46694,-0.55952 2.1875,-0.875 0.0788,0.1077 0.16955,0.20611 0.25,0.3125 l 0.8125,-0.1875 0.25,-0.0312 0.1875,0.125 5.1875,4.25 12,3.46875 9.40625,-1.25 0.0312,0 7.53125,-1.875 c 0.81591,-0.6519 1.5838,-1.34604 2.3125,-2.09375 l 1.65625,-2.84375 0.25,-0.4375 0.4375,0.25 6.21875,3.46875 7.6875,0.25 0.0312,0 10.25,0.75 13.5,-6.25 11.75,-5.5 6.34375,-5.65625 c 0.16585,-0.24035 0.33868,-0.47504 0.5,-0.71875 l 1.84375,-6 0.0937,-0.34375 0.34375,-0.0312 1.28125,-0.0937 c 1.42401,-0.29329 2.80022,-0.72415 4.125,-1.25 0.0215,-0.009 0.0411,-0.0227 0.0625,-0.0312 l 6.375,-4.5625 0.0312,-0.0312 4.5625,-3.9375 c 0.72304,-0.99336 1.36315,-2.05976 1.9375,-3.15625 l 1.375,-3.03125 c 0.003,-0.009 -0.003,-0.0221 0,-0.0312 0.46065,-1.27024 0.80885,-2.61239 1.0625,-3.96875 l 0.1875,-4.0625 0,-0.0937 -2.03125,-11 c -0.79044,-1.730394 -1.7637,-3.35191 -2.90625,-4.84375 l -1.46875,-1.46875 -3.34375,-3.3125 c -0.0119,-0.009 -0.0193,-0.0223 -0.0312,-0.03125 -0.69813,-0.525289 -1.43567,-1.017897 -2.1875,-1.46875 l -8.3125,-2.625 -4.5,-0.6875 -2.09375,3 -0.53125,0.78125 -0.34375,-0.875 c 0,0 -0.23121,-0.61659 -0.59375,-1.28125 -0.36254,-0.66466 -0.92094,-1.36672 -1.1875,-1.5 -0.7585,-0.37925 -1.13702,-1.20769 -1.46875,-1.9375 -0.2873,-0.63207 -0.42395,-1.04371 -0.46875,-1.1875 l -4.375,-3.4375 -0.0625,-0.03125 -7.4375,-3.71875 -0.0625,-0.03125 -6.125,-1.96875 -7.46875,1 -0.84375,0.125 0.3125,-0.78125 0.9375,-2.625 -1.21875,-5.9375 -1.53125,-6.03125 -1.875,-3.8125 c -0.32535,-0.360342 -0.6856,-0.691145 -1.0311,-1.0316 -0.0313,-0.03082 -0.0623,-0.06309 -0.0937,-0.09375 l -5.5,-3.8125 -0.125,-0.0625 -6.59375,-2.1875 -7.03125,-0.71875 -2.59375,4.03125 -0.71875,1.09375 -0.1875,-1.28125 -0.46875,-3.09375 -3.40625,-2.9375 -0.0312,0 0,-0.03125 c 0,0 -0.83215,-0.89345 -1.75,-1.90625 -0.91785,-1.0128 -1.92494,-2.12909 -2.34375,-2.6875 -0.42281,-0.56375 -1.21691,-1.84106 -2.15625,-3.21875 -0.93934,-1.3777 -2.01646,-2.81767 -2.8125,-3.5 C 201.57901,24.18826 198.3125,22.875 198.3125,22.875 l -0.125,-0.03125 -0.0625,-0.09375 -1,-1.15625 c -0.36476,1.456213 -0.7634,3.085476 -1.3125,5.125 -0.87894,3.39856 -1.49222,5.81262 -1.84375,7.21875 -1.34768,5.27355 -2.82425,11.54698 -4.40625,18.8125 5.97653,-1.81631 11.34761,-2.0663 16.09375,-0.71875 5.44917,1.58213 9.30854,5.07822 11.59375,10.46875 4.80463,11.42586 2.85541,25.30866 -5.875,41.65625 -7.14848,13.24223 -14.97269,23.01174 -23.46875,29.28125 -8.84767,6.56251 -17.21094,9.44923 -25.0625,8.6875 -3.75,-0.35155 -6.48827,-1.54296 -8.1875,-3.59375 -1.46483,-1.69921 -1.24999,-4.87108 0.625,-9.5 0.0586,-0.11716 0.48828,-2.67967 1.25,-7.71875 0.41016,-2.75388 0.77345,-5.05856 1.125,-6.875 0.82032,-4.39449 1.90234,-9.19136 3.25,-14.40625 3.57421,-13.94524 6.02343,-23.93352 7.3125,-29.96875 2.92968,-14.17959 5.1328,-24.27724 6.65625,-30.3125 0.41014,-1.64052 1.09374,-4.30457 2.03125,-7.9375 0.87889,-3.39832 1.56248,-5.99596 2.03125,-7.8125 1.58201,-6.50377 2.23045,-10.79674 1.9375,-12.90625 -0.0754,-0.477753 0.0207,-0.92961 0.25,-1.375 l -2.34375,-1.75 -0.0312,-0.03125 -12.65625,-3.21875 -0.0625,0 -11.5625,-2 -0.0312,0 -0.125,-0.03125 c -0.90555,-0.04011 -1.84764,-0.07486 -2.78125,-0.09375 -0.96504,-0.019526 -1.93503,-0.031117 -2.90625,0 z M 131.75,5.53125 C 128.69723,6.4788939 125.68828,7.6379183 122.71875,9 l 0.59375,-0.1875 0.0312,0 8.40625,-3.28125 z m 49.125,2.75 0.84375,0.625 c 0.051,-0.051593 0.10077,-0.105134 0.15625,-0.15625 -0.33602,-0.153344 -0.65971,-0.3212612 -1,-0.46875 z m 16.875,10.875 c -0.033,0.134942 -0.0599,0.238252 -0.0937,0.375 -0.0594,0.254384 -0.15088,0.625578 -0.21875,0.90625 l 1.375,1.59375 c 0.18397,0.06999 2.48189,0.939468 4.28125,2.1875 -1.76263,-1.807052 -3.53997,-3.481586 -5.34375,-5.0625 z m 8.25,8.1875 c 0.29063,0.401363 0.59891,0.782569 0.875,1.1875 0.9547,1.40022 1.79019,2.74109 2.125,3.1875 0.3388,0.45174 1.3682,1.6175 2.28125,2.625 0.8972,0.99001 1.6598,1.81385 1.6875,1.84375 4e-4,5e-4 0.0312,0.03125 0.0312,0.03125 l 1.4375,1.21875 C 211.59712,33.787509 208.78854,30.418424 206,27.34375 z m -72.6875,10.125 c -1.11331,1.05478 -2.08597,2.02743 -2.90625,2.90625 -1.93362,2.16805 -3.84768,4.83603 -5.78125,8 -2.1094,3.39852 -4.23439,7.25788 -6.34375,11.59375 -1.0547,4.80475 -5.16799,22.72661 -12.375,53.78125 0.23436,-0.11717 0.48828,-0.1914 0.78125,-0.25 5.56639,-2.05077 9.35155,-2.58983 11.34375,-1.59375 4.5117,-6.44529 8.69529,-15.57028 12.5625,-27.40625 3.51559,-10.89838 5.78903,-20.38275 6.84375,-28.46875 0.52735,-3.63274 0.67184,-6.62492 0.4375,-8.96875 -0.41019,-4.21867 -1.38285,-6.99601 -2.90625,-8.34375 -0.58597,-0.52726 -1.12894,-0.95694 -1.65625,-1.25 z M 218.59375,39 c -0.67306,0.07974 -1.34378,0.179685 -2,0.3125 l 0.0312,0.03125 0.0312,0.1875 0.3125,1.9375 L 218.59375,39 z M 82.9375,48.125 c -1.856742,4.037807 -3.35522,8.246249 -4.375,12.59375 l 0.625,0.0625 3.75,-12.65625 z m 160.09375,3 1.40625,5.53125 1.28125,6.0625 0,0.15625 -0.0312,0.125 -0.71875,2 5.90625,-0.78125 c -1.41981,-0.336049 -2.87538,-0.615115 -4.34375,-0.8125 -0.099,-4.481119 -1.36453,-8.671987 -3.5,-12.28125 z M 191.75,59.5 c -0.35158,0.35167 -0.42581,0.45712 -0.25,0.28125 -0.99612,0.93759 -2.32815,1.76571 -3.96875,2.46875 -0.11718,0.76181 -0.15628,1.01571 -0.15625,0.78125 -1.99221,9.55086 -4.33596,19.57428 -7.03125,30.0625 -3.33986,12.71488 -5.32032,22.81254 -5.90625,30.3125 -0.0586,0.0586 -0.67189,1.71877 -1.84375,5 -0.82032,2.10939 -0.60547,3.69533 0.625,4.75 l 0,0.0937 c 0.58593,-0.46873 1.12889,-0.93748 1.65625,-1.40625 1.99217,-1.87498 3.7578,-3.67966 5.28125,-5.4375 0.11717,-0.11716 0.69138,-0.80076 1.6875,-2.03125 1.17185,-1.52341 2.18357,-2.85935 3.0625,-4.03125 2.34372,-3.33981 4.36326,-6.47652 6.0625,-9.40625 4.74606,-8.26167 7.81246,-15.79682 9.21875,-22.59375 1.75777,-8.96477 0.9609,-16.49992 -2.4375,-22.59375 -1.81644,-3.10538 -3.83207,-5.19523 -6,-6.25 z M 63.21875,62.6875 C 58.343086,64.07983 53.799935,66.272881 49.75,69.125 l 2.78125,-0.9375 0.09375,-0.03125 8,-4.25 0.03125,0 2.5625,-1.21875 z m 208.03125,12.5 c 0.30053,0.618705 0.73283,1.225784 0.96875,1.34375 0.74359,0.37179 1.19867,1.18195 1.59375,1.90625 0.16305,0.29892 0.17268,0.3283 0.28125,0.5625 l 1.34375,-1.90625 c -0.71607,0.03471 -1.42633,0.09718 -2.125,0.1875 -0.6683,-0.715912 -1.34973,-1.422941 -2.0625,-2.09375 z M 37.71875,81.71875 c -0.43246,0.67415 -0.852814,1.364288 -1.25,2.0625 l 0.125,0 1.125,-2.0625 z m -6.25,3 c -1.170935,0.108774 -2.313763,0.310853 -3.4375,0.5625 l 2.65625,-0.21875 0.78125,-0.34375 z m -14.3125,5.71875 c -1.904609,1.492412 -3.606405,3.249176 -5.0625,5.1875 0.319683,-0.257651 0.624165,-0.512673 0.9375,-0.78125 1.07757,-0.92364 1.9702,-1.75345 2,-1.78125 l 0.03125,-0.03125 2.09375,-2.59375 z m -10.5625,23.25 c 0.1187961,2.35888 0.5179201,4.64533 1.1875,6.8125 l -1.1875,-6.8125 z m 274.46875,14.21875 -0.375,0.0312 -0.59375,1.90625 c 0.34389,-0.63687 0.65477,-1.28264 0.96875,-1.9375 z m -238.75,9.71875 -13.375,1.84375 c 1.654268,0.31278 3.34931,0.5 5.09375,0.5 2.983619,0 5.870204,-0.51963 8.5625,-1.40625 L 42.3125,137.625 z m 231.75,0.84375 -2.25,2 -0.0625,0.0625 -0.0625,0.0312 -11.875,5.5625 -13.625,6.3125 -0.125,0.0312 -0.125,0 -10.34375,-0.75 -7.8125,-0.25 -0.125,0 -0.125,-0.0625 -5.875,-3.28125 -0.5625,0.96875 c 5.88901,2.84921 12.466,4.46875 19.4375,4.46875 13.31723,0 25.29432,-5.83935 33.53125,-15.09375 z m -194.21875,9.8125 -3.03125,2.09375 -0.09375,0.0625 -0.125,0 -6.03125,0.78125 c 1.63924,0.18165 3.281051,0.3125 4.96875,0.3125 1.444516,0 2.873899,-0.0867 4.28125,-0.21875 0.187891,-0.92403 0.364557,-1.76248 0.5625,-2.71875 l -0.53125,-0.3125 z m 102.625,0.1875 -0.0937,0.0312 c 4.58383,5.5324 11.44038,9.09375 19.15625,9.09375 4.89174,0 9.46066,-1.43037 13.3125,-3.875 l -5.125,1.28125 -0.0312,0 -9.625,1.25 -0.0937,0.0312 -0.0937,-0.0312 -12.125,-3.53125 -0.0937,-0.0312 -0.0937,-0.0625 -5.09375,-4.15625 z m -62.71875,1.09375 -3.28125,2.5625 -0.0625,0.0312 -0.0625,0.0312 -9.84375,3.78125 -0.0937,0.0312 -0.0937,0 -8.59375,0 -0.03125,0 -0.0625,0 -1.46875,-0.28125 c -0.11209,0.0943 -0.240515,0.21404 -0.375,0.3125 2.154291,0.34196 4.50097,0.49888 7,0.4375 7.5208,-0.18471 13.20807,-3.06072 16.96875,-6.90625 z m 38.28125,3.6875 -4.96875,0.28125 c 1.66848,-0.0337 3.32928,-0.13896 4.96875,-0.28125 z"
       id="path3774-1"
       inkscape:connector-curvature="0"
       onmouseover="docume.style.fill=#ff0000"
       transform="translate(112.26795,449.87492)" />
  </g>
  <g
     inkscape:groupmode="layer"
     id="layer2"
     inkscape:label="Calque"
     style="display:none"
     transform="translate(-118.8617,-452.44944)"
     sodipodi:insensitive="true">
    <path
       style="opacity:0.2;fill:#ffffff;fill-opacity:1;stroke:none"
       d="m 275,362.36218 0,185 0,30 15,0 0,-4.03125 c 4.41265,2.55263 9.5356,4.03125 15,4.03125 16.56854,0 30,-13.43146 30,-30 0,-16.56854 -13.43146,-30 -30,-30 -5.4644,0 -10.58735,1.47862 -15,4.03125 l 0,-159.03125 -15,0 z m -65,140 0,175 15,0 0,-119.03125 c 4.41265,2.55263 9.5356,4.03125 15,4.03125 16.56855,0 30,-13.43146 30,-30 0,-16.56854 -13.43145,-30 -30,-30 -5.4644,0 -10.58735,1.47862 -15,4.03125 l 0,-4.03125 -15,0 z m 30,15 c 8.28427,0 15,6.71573 15,15 0,8.28427 -6.71573,15 -15,15 -8.28427,0 -15,-6.71573 -15,-15 0,-8.28427 6.71573,-15 15,-15 z m 65,15 c 8.28427,0 15,6.71573 15,15 0,8.28427 -6.71573,15 -15,15 -8.28427,0 -15,-6.71573 -15,-15 0,-8.28427 6.71573,-15 15,-15 z"
       id="path3793"
       inkscape:connector-curvature="0" />
    <path
       inkscape:connector-curvature="0"
       id="path3917"
       d="m 280,357.36218 0,185 0,30 15,0 0,-4.03125 c 4.41265,2.55263 9.5356,4.03125 15,4.03125 16.56854,0 30,-13.43146 30,-30 0,-16.56854 -13.43146,-30 -30,-30 -5.4644,0 -10.58735,1.47862 -15,4.03125 l 0,-159.03125 -15,0 z m -65,140 0,175 15,0 0,-119.03125 c 4.41265,2.55263 9.5356,4.03125 15,4.03125 16.56855,0 30,-13.43146 30,-30 0,-16.56854 -13.43145,-30 -30,-30 -5.4644,0 -10.58735,1.47862 -15,4.03125 l 0,-4.03125 -15,0 z m 30,15 c 8.28427,0 15,6.71573 15,15 0,8.28427 -6.71573,15 -15,15 -8.28427,0 -15,-6.71573 -15,-15 0,-8.28427 6.71573,-15 15,-15 z m 65,15 c 8.28427,0 15,6.71573 15,15 0,8.28427 -6.71573,15 -15,15 -8.28427,0 -15,-6.71573 -15,-15 0,-8.28427 6.71573,-15 15,-15 z"
       style="opacity:0.2;fill:#ffffff;fill-opacity:1;stroke:none" />
    <path
       style="opacity:0.2;fill:#ffffff;fill-opacity:1;stroke:none"
       d="m 285,352.36218 0,185 0,30 15,0 0,-4.03125 c 4.41265,2.55263 9.5356,4.03125 15,4.03125 16.56854,0 30,-13.43146 30,-30 0,-16.56854 -13.43146,-30 -30,-30 -5.4644,0 -10.58735,1.47862 -15,4.03125 l 0,-159.03125 -15,0 z m -65,140 0,175 15,0 0,-119.03125 c 4.41265,2.55263 9.5356,4.03125 15,4.03125 16.56855,0 30,-13.43146 30,-30 0,-16.56854 -13.43145,-30 -30,-30 -5.4644,0 -10.58735,1.47862 -15,4.03125 l 0,-4.03125 -15,0 z m 30,15 c 8.28427,0 15,6.71573 15,15 0,8.28427 -6.71573,15 -15,15 -8.28427,0 -15,-6.71573 -15,-15 0,-8.28427 6.71573,-15 15,-15 z m 65,15 c 8.28427,0 15,6.71573 15,15 0,8.28427 -6.71573,15 -15,15 -8.28427,0 -15,-6.71573 -15,-15 0,-8.28427 6.71573,-15 15,-15 z"
       id="path3919"
       inkscape:connector-curvature="0" />
  </g>
</svg>
