<?xml version="1.0" encoding="UTF-8" standalone="no"?>
<!-- Created with Inkscape (http://www.inkscape.org/) -->

<svg
   xmlns:dc="http://purl.org/dc/elements/1.1/"
   xmlns:cc="http://creativecommons.org/ns#"
   xmlns:rdf="http://www.w3.org/1999/02/22-rdf-syntax-ns#"
   xmlns:svg="http://www.w3.org/2000/svg"
   xmlns="http://www.w3.org/2000/svg"
   xmlns:sodipodi="http://sodipodi.sourceforge.net/DTD/sodipodi-0.dtd"
   xmlns:inkscape="http://www.inkscape.org/namespaces/inkscape"
   width="210mm"
   height="297mm"
   id="svg2"
   version="1.1"
   inkscape:version="0.48.2 r9819"
   sodipodi:docname="Nouveau document 1">
  <defs
     id="defs4" />
  <sodipodi:namedview
     id="base"
     pagecolor="#ffffff"
     bordercolor="#666666"
     borderopacity="1.0"
     inkscape:pageopacity="0.0"
     inkscape:pageshadow="2"
     inkscape:zoom="2.8"
     inkscape:cx="227.55348"
     inkscape:cy="505.64476"
     inkscape:document-units="px"
     inkscape:current-layer="layer1"
     showgrid="false"
     inkscape:window-width="1920"
     inkscape:window-height="1018"
     inkscape:window-x="-8"
     inkscape:window-y="-8"
     inkscape:window-maximized="1">
    <inkscape:grid
       type="xygrid"
       id="grid3768"
       units="px"
       empspacing="5"
       visible="true"
       enabled="true"
       snapvisiblegridlinesonly="true"
       spacingx="1px"
       spacingy="1px" />
  </sodipodi:namedview>
  <metadata
     id="metadata7">
    <rdf:RDF>
      <cc:Work
         rdf:about="">
        <dc:format>image/svg+xml</dc:format>
        <dc:type
           rdf:resource="http://purl.org/dc/dcmitype/StillImage" />
        <dc:title></dc:title>
      </cc:Work>
    </rdf:RDF>
  </metadata>
  <g
     inkscape:label="Calque 1"
     inkscape:groupmode="layer"
     id="layer1"
     style="display:inline">
    <path
       style="fill:none;stroke:#1b2833;stroke-width:3;stroke-miterlimit:4;stroke-opacity:1;stroke-dasharray:none"
       d="m 263.25,451.40625 c -34.64489,0.0138 -66.60317,25.50651 -76.15625,58.375 -16.48066,0.47061 -32.34478,9.69993 -41.0625,23.59375 -22.1971,0.12523 -38.91947,26.25262 -29.65625,46.46875 5.98499,15.33632 24.02492,23.81206 39.65625,20.34375 10.91541,9.79937 26.31799,13.11128 40.46875,12.09375 11.71854,9.09226 30.13605,7.73318 40.40625,-2.96875 17.9241,6.96549 38.58027,6.21985 56.375,0.25 10.91951,11.06895 30.43911,11.69699 42.03125,1.3125 23.02618,9.50558 52.65706,-1.04731 63.5,-23.65625 11.92228,-3.99988 21.35434,-14.81249 22.03125,-27.5625 1.63587,-15.31121 -9.37957,-30.40921 -24.53125,-33.1875 -3.47836,-1.1483 -7.79946,0.69071 -10.03125,-3.09375 -5.95556,-5.05401 -13.3441,-8.44324 -20.75,-10.375 -2.50402,-15.19386 -17.92318,-26.86301 -33.15625,-25.4375 -14.92162,-22.64463 -41.75518,-37.09014 -69.125,-36.15625 z"
       id="path3962"
       inkscape:connector-curvature="0" />
    <path
       style="fill:#1b2833;fill-opacity:1;stroke:none"
       d="M 265 457.375 C 229.38655 457.375 199.59862 482.34014 191.9375 515.84375 C 190.96422 515.78048 189.98916 515.75 189 515.75 C 171.89891 515.75 157.02057 525.32997 149.40625 539.46875 C 148.77396 539.425 148.14333 539.40625 147.5 539.40625 C 132.31217 539.40625 120 551.77605 120 567.0625 C 120 582.34895 132.31217 594.75 147.5 594.75 C 150.88167 594.75 154.13262 594.12386 157.125 593 C 165.27327 601.23315 176.54191 606.3125 189 606.3125 C 192.01805 606.3125 194.96089 606.039 197.8125 605.46875 C 202.29237 609.73739 208.34409 612.375 215 612.375 C 223.26397 612.375 230.57346 608.3139 235.125 602.09375 C 244.283 606.10344 254.37584 608.34375 265 608.34375 C 275.62416 608.34375 285.717 606.10344 294.875 602.09375 C 299.42654 608.3139 306.73603 612.375 315 612.375 C 322.5905 612.375 329.38379 608.96868 333.96875 603.59375 C 340.00588 606.62281 346.79604 608.34375 354 608.34375 C 372.26363 608.34375 387.97814 597.3901 395.03125 581.65625 C 406.42333 579.30996 415 569.15968 415 557 C 415 543.10322 403.80712 531.84375 390 531.84375 C 388.91003 531.84375 387.83441 531.92634 386.78125 532.0625 C 379.86695 524.65565 370.51044 519.60036 360 518.1875 C 359.69886 504.55404 348.6178 493.59375 335 493.59375 C 333.08585 493.59375 331.22831 493.80871 329.4375 494.21875 C 316.3465 472.15582 292.38766 457.375 265 457.375 z "
       id="path3774" />
    <path
       inkscape:connector-curvature="0"
       style="fill:#ffffff;fill-opacity:1;stroke:none;display:inline"
       d="m 270,367.36218 0,185 0,30 15,0 0,-4.03125 c 4.41265,2.55263 9.5356,4.03125 15,4.03125 16.56854,0 30,-13.43146 30,-30 0,-16.56854 -13.43146,-30 -30,-30 -5.4644,0 -10.58735,1.47862 -15,4.03125 l 0,-159.03125 -15,0 z m -65,140 0,175 15,0 0,-119.03125 c 4.41265,2.55263 9.5356,4.03125 15,4.03125 16.56855,0 30,-13.43146 30,-30 0,-16.56854 -13.43145,-30 -30,-30 -5.4644,0 -10.58735,1.47862 -15,4.03125 l 0,-4.03125 -15,0 z m 30,15 c 8.28427,0 15,6.71573 15,15 0,8.28427 -6.71573,15 -15,15 -8.28427,0 -15,-6.71573 -15,-15 0,-8.28427 6.71573,-15 15,-15 z m 65,15 c 8.28427,0 15,6.71573 15,15 0,8.28427 -6.71573,15 -15,15 -8.28427,0 -15,-6.71573 -15,-15 0,-8.28427 6.71573,-15 15,-15 z"
       id="path3793-1" />
  </g>
  <g
     inkscape:groupmode="layer"
     id="layer2"
     inkscape:label="Calque"
     style="display:none">
    <path
       style="opacity:0.2;fill:#ffffff;fill-opacity:1;stroke:none"
       d="m 275,362.36218 0,185 0,30 15,0 0,-4.03125 c 4.41265,2.55263 9.5356,4.03125 15,4.03125 16.56854,0 30,-13.43146 30,-30 0,-16.56854 -13.43146,-30 -30,-30 -5.4644,0 -10.58735,1.47862 -15,4.03125 l 0,-159.03125 -15,0 z m -65,140 0,175 15,0 0,-119.03125 c 4.41265,2.55263 9.5356,4.03125 15,4.03125 16.56855,0 30,-13.43146 30,-30 0,-16.56854 -13.43145,-30 -30,-30 -5.4644,0 -10.58735,1.47862 -15,4.03125 l 0,-4.03125 -15,0 z m 30,15 c 8.28427,0 15,6.71573 15,15 0,8.28427 -6.71573,15 -15,15 -8.28427,0 -15,-6.71573 -15,-15 0,-8.28427 6.71573,-15 15,-15 z m 65,15 c 8.28427,0 15,6.71573 15,15 0,8.28427 -6.71573,15 -15,15 -8.28427,0 -15,-6.71573 -15,-15 0,-8.28427 6.71573,-15 15,-15 z"
       id="path3793"
       inkscape:connector-curvature="0" />
    <path
       inkscape:connector-curvature="0"
       id="path3917"
       d="m 280,357.36218 0,185 0,30 15,0 0,-4.03125 c 4.41265,2.55263 9.5356,4.03125 15,4.03125 16.56854,0 30,-13.43146 30,-30 0,-16.56854 -13.43146,-30 -30,-30 -5.4644,0 -10.58735,1.47862 -15,4.03125 l 0,-159.03125 -15,0 z m -65,140 0,175 15,0 0,-119.03125 c 4.41265,2.55263 9.5356,4.03125 15,4.03125 16.56855,0 30,-13.43146 30,-30 0,-16.56854 -13.43145,-30 -30,-30 -5.4644,0 -10.58735,1.47862 -15,4.03125 l 0,-4.03125 -15,0 z m 30,15 c 8.28427,0 15,6.71573 15,15 0,8.28427 -6.71573,15 -15,15 -8.28427,0 -15,-6.71573 -15,-15 0,-8.28427 6.71573,-15 15,-15 z m 65,15 c 8.28427,0 15,6.71573 15,15 0,8.28427 -6.71573,15 -15,15 -8.28427,0 -15,-6.71573 -15,-15 0,-8.28427 6.71573,-15 15,-15 z"
       style="opacity:0.2;fill:#ffffff;fill-opacity:1;stroke:none" />
    <path
       style="opacity:0.2;fill:#ffffff;fill-opacity:1;stroke:none"
       d="m 285,352.36218 0,185 0,30 15,0 0,-4.03125 c 4.41265,2.55263 9.5356,4.03125 15,4.03125 16.56854,0 30,-13.43146 30,-30 0,-16.56854 -13.43146,-30 -30,-30 -5.4644,0 -10.58735,1.47862 -15,4.03125 l 0,-159.03125 -15,0 z m -65,140 0,175 15,0 0,-119.03125 c 4.41265,2.55263 9.5356,4.03125 15,4.03125 16.56855,0 30,-13.43146 30,-30 0,-16.56854 -13.43145,-30 -30,-30 -5.4644,0 -10.58735,1.47862 -15,4.03125 l 0,-4.03125 -15,0 z m 30,15 c 8.28427,0 15,6.71573 15,15 0,8.28427 -6.71573,15 -15,15 -8.28427,0 -15,-6.71573 -15,-15 0,-8.28427 6.71573,-15 15,-15 z m 65,15 c 8.28427,0 15,6.71573 15,15 0,8.28427 -6.71573,15 -15,15 -8.28427,0 -15,-6.71573 -15,-15 0,-8.28427 6.71573,-15 15,-15 z"
       id="path3919"
       inkscape:connector-curvature="0" />
  </g>
</svg>
